<svg width="100" height="100" viewBox="0 0 100 100" fill="none" xmlns="http://www.w3.org/2000/svg">
<path d="M78.9875 74.0484L86.0438 76.5094C86.921 76.8194 87.8446 76.978 88.775 76.9781C90.7133 76.9769 92.5874 76.2827 94.0588 75.021C95.5302 73.7593 96.5021 72.0131 96.799 70.0976C97.0958 68.1822 96.6982 66.2237 95.6778 64.5757C94.6573 62.9278 93.0814 61.6989 91.2344 61.1109L67.0563 53.3469L67.1156 50.4188C67.1241 49.7588 66.9941 49.1043 66.7339 48.4977C66.4738 47.8911 66.0893 47.3458 65.6053 46.897C65.1213 46.4482 64.5486 46.1059 63.9241 45.8922C63.2996 45.6784 62.6372 45.5981 61.9797 45.6562L51.5625 46.6594V10.9375C51.5625 9.6943 52.0564 8.50201 52.9355 7.62294C53.8145 6.74386 55.0068 6.25 56.25 6.25H70.3125C71.5557 6.25 72.748 6.74386 73.6271 7.62294C74.5062 8.50201 75 9.6943 75 10.9375V15.625H74.2188C71.9396 15.625 69.7537 16.5304 68.1421 18.1421C66.5304 19.7537 65.625 21.9395 65.625 24.2188C65.625 26.498 66.5304 28.6838 68.1421 30.2955C69.7537 31.9071 71.9396 32.8125 74.2188 32.8125H78.9063C81.1855 32.8125 83.3713 31.9071 84.983 30.2955C86.5946 28.6838 87.5 26.498 87.5 24.2188C87.5 21.9395 86.5946 19.7537 84.983 18.1421C83.3713 16.5304 81.1855 15.625 78.9063 15.625H78.125V10.9375C78.1225 8.86626 77.2986 6.88056 75.8341 5.41597C74.3695 3.95138 72.3838 3.12748 70.3125 3.125H56.25C54.1788 3.12748 52.1931 3.95138 50.7285 5.41597C49.2639 6.88056 48.44 8.86626 48.4375 10.9375V46.9609L33.2313 48.425L16.6422 32.8891C15.8573 32.1663 14.9376 31.6052 13.9358 31.2378C12.934 30.8704 11.8697 30.704 10.8035 30.7479C9.73741 30.7919 8.69037 31.0454 7.72222 31.494C6.75406 31.9426 5.88375 32.5775 5.16096 33.3625C4.43818 34.1475 3.87708 35.0671 3.50971 36.0689C3.14233 37.0707 2.97588 38.135 3.01984 39.2012C3.10863 41.3543 4.04911 43.384 5.6344 44.8438L34.375 71.0031V78.125C34.3775 80.1962 35.2014 82.1819 36.666 83.6465C38.1306 85.1111 40.1163 85.935 42.1875 85.9375H44.1907C45.5322 85.9375 46.8511 85.592 48.0203 84.9344L50.1453 83.7391L56.9266 86.9938L56.25 87.5H10.9375C8.86629 87.5025 6.88059 88.3264 5.416 89.791C3.95141 91.2556 3.12751 93.2413 3.12503 95.3125C3.12503 95.7269 3.28965 96.1243 3.58267 96.4174C3.8757 96.7104 4.27313 96.875 4.68753 96.875H95.3125C95.7269 96.875 96.1244 96.7104 96.4174 96.4174C96.7104 96.1243 96.875 95.7269 96.875 95.3125V90.625C96.8717 87.7252 95.7183 84.9451 93.6679 82.8947C91.6174 80.8442 88.8373 79.6908 85.9375 79.6875H67.5563L62.1563 76.9875L63.0188 76.5016L78.9875 74.0484ZM78.9063 18.75C80.3567 18.75 81.7477 19.3262 82.7733 20.3518C83.7989 21.3773 84.375 22.7683 84.375 24.2188C84.375 25.6692 83.7989 27.0602 82.7733 28.0857C81.7477 29.1113 80.3567 29.6875 78.9063 29.6875H74.2188C72.7684 29.6875 71.3774 29.1113 70.3518 28.0857C69.3262 27.0602 68.75 25.6692 68.75 24.2188C68.75 22.7683 69.3262 21.3773 70.3518 20.3518C71.3774 19.3262 72.7684 18.75 74.2188 18.75H78.9063ZM62.2782 48.7672C62.4982 48.745 62.7205 48.7698 62.9302 48.84C63.14 48.9101 63.3324 49.0239 63.4949 49.174C63.6574 49.3241 63.7861 49.5069 63.8727 49.7104C63.9592 49.914 64.0016 50.1336 63.9969 50.3547L63.9407 53.0797L40.9375 55.6344L36.2797 51.2719L62.2782 48.7672ZM36.4672 68.6813L7.7344 42.5328C6.75807 41.6348 6.17847 40.3857 6.12308 39.0604C6.09566 38.4041 6.19777 37.7489 6.42357 37.1321C6.64937 36.5153 6.99444 35.9491 7.43909 35.4656C7.88374 34.9822 8.41925 34.5911 9.01505 34.3146C9.61085 34.0381 10.2553 33.8817 10.9115 33.8543C12.2369 33.7989 13.53 34.2723 14.5063 35.1703L39.3188 58.4078C39.483 58.5629 39.6791 58.6802 39.8934 58.7514C40.1077 58.8227 40.335 58.8462 40.5594 58.8203L65.3125 56.0703L90.275 64.0875C90.9043 64.2918 91.4867 64.6189 91.9886 65.05C92.4905 65.481 92.9019 66.0074 93.1989 66.5985C93.4959 67.1897 93.6726 67.8339 93.7188 68.4939C93.765 69.1539 93.6798 69.8165 93.4681 70.4433C93.2564 71.07 92.9224 71.6486 92.4854 72.1454C92.0485 72.6421 91.5173 73.0472 90.9227 73.3372C90.328 73.6272 89.6817 73.7963 89.0213 73.8347C88.3608 73.8731 87.6993 73.7801 87.075 73.5609L64.575 65.7125C64.3527 65.6467 64.1205 65.6203 63.8891 65.6344L36.4672 68.6813ZM93.75 90.625V93.75H6.51722C6.84156 92.8367 7.4405 92.0461 8.23188 91.4866C9.02327 90.9272 9.96835 90.6262 10.9375 90.625H93.75ZM67.7078 82.8125H85.9375C87.4559 82.8145 88.9408 83.2589 90.2106 84.0914C91.4805 84.9239 92.4802 86.1084 93.0875 87.5H61.4578L67.7078 82.8125ZM64.2281 81.5172L59.7438 84.8797L53.4719 81.875L58.8657 78.8406L64.2281 81.5172ZM61.7282 73.6375L46.4828 82.2109C45.7829 82.6045 44.9936 82.8116 44.1907 82.8125H42.1875C40.9443 82.8125 39.752 82.3186 38.873 81.4396C37.9939 80.5605 37.5 79.3682 37.5 78.125V71.7344L63.9328 68.7969L72.6953 71.8531L62.2641 73.4563C62.0779 73.4836 61.8983 73.5451 61.7344 73.6375H61.7282Z" fill="#4D8D63"/>
<path d="M43.75 78.125C44.6129 78.125 45.3125 77.4254 45.3125 76.5625C45.3125 75.6996 44.6129 75 43.75 75C42.8871 75 42.1875 75.6996 42.1875 76.5625C42.1875 77.4254 42.8871 78.125 43.75 78.125Z" fill="#4D8D63"/>
<path d="M76.5625 25.7812C77.4254 25.7812 78.125 25.0817 78.125 24.2188C78.125 23.3558 77.4254 22.6562 76.5625 22.6562C75.6996 22.6562 75 23.3558 75 24.2188C75 25.0817 75.6996 25.7812 76.5625 25.7812Z" fill="#4D8D63"/>
</svg>
