<svg width="131" height="125" viewBox="0 0 131 125" fill="none" xmlns="http://www.w3.org/2000/svg">
<circle cx="88.5" cy="42.5" r="42.5" fill="#E3FFD1"/>
<path d="M78.9875 99.0484L86.0438 101.509C86.921 101.819 87.8446 101.978 88.775 101.978C90.7133 101.977 92.5874 101.283 94.0588 100.021C95.5302 98.7593 96.5021 97.0131 96.799 95.0976C97.0958 93.1822 96.6982 91.2237 95.6778 89.5757C94.6573 87.9278 93.0814 86.6989 91.2344 86.1109L67.0563 78.3469L67.1156 75.4188C67.1241 74.7588 66.9941 74.1043 66.7339 73.4977C66.4738 72.8911 66.0893 72.3458 65.6053 71.897C65.1213 71.4482 64.5486 71.1059 63.9241 70.8922C63.2996 70.6784 62.6372 70.5981 61.9797 70.6562L51.5625 71.6594V35.9375C51.5625 34.6943 52.0564 33.502 52.9355 32.6229C53.8145 31.7439 55.0068 31.25 56.25 31.25H70.3125C71.5557 31.25 72.748 31.7439 73.6271 32.6229C74.5062 33.502 75 34.6943 75 35.9375V40.625H74.2188C71.9396 40.625 69.7537 41.5304 68.1421 43.1421C66.5304 44.7537 65.625 46.9395 65.625 49.2188C65.625 51.498 66.5304 53.6838 68.1421 55.2954C69.7537 56.9071 71.9396 57.8125 74.2188 57.8125H78.9063C81.1855 57.8125 83.3713 56.9071 84.983 55.2954C86.5946 53.6838 87.5 51.498 87.5 49.2188C87.5 46.9395 86.5946 44.7537 84.983 43.1421C83.3713 41.5304 81.1855 40.625 78.9063 40.625H78.125V35.9375C78.1225 33.8663 77.2986 31.8806 75.8341 30.416C74.3695 28.9514 72.3838 28.1275 70.3125 28.125H56.25C54.1788 28.1275 52.1931 28.9514 50.7285 30.416C49.2639 31.8806 48.44 33.8663 48.4375 35.9375V71.9609L33.2313 73.425L16.6422 57.8891C15.8573 57.1663 14.9376 56.6052 13.9358 56.2378C12.934 55.8704 11.8697 55.704 10.8035 55.7479C9.73741 55.7919 8.69037 56.0454 7.72222 56.494C6.75406 56.9426 5.88375 57.5775 5.16096 58.3625C4.43818 59.1475 3.87708 60.0671 3.50971 61.0689C3.14233 62.0707 2.97588 63.135 3.01984 64.2012C3.10863 66.3543 4.04911 68.384 5.6344 69.8438L34.375 96.0031V103.125C34.3775 105.196 35.2014 107.182 36.666 108.647C38.1306 110.111 40.1163 110.935 42.1875 110.938H44.1907C45.5322 110.937 46.8511 110.592 48.0203 109.934L50.1453 108.739L56.9266 111.994L56.25 112.5H10.9375C8.86629 112.502 6.88059 113.326 5.416 114.791C3.95141 116.256 3.12751 118.241 3.12503 120.312C3.12503 120.727 3.28965 121.124 3.58267 121.417C3.8757 121.71 4.27313 121.875 4.68753 121.875H95.3125C95.7269 121.875 96.1244 121.71 96.4174 121.417C96.7104 121.124 96.875 120.727 96.875 120.312V115.625C96.8717 112.725 95.7183 109.945 93.6679 107.895C91.6174 105.844 88.8373 104.691 85.9375 104.688H67.5563L62.1563 101.987L63.0188 101.502L78.9875 99.0484ZM78.9063 43.75C80.3567 43.75 81.7477 44.3262 82.7733 45.3518C83.7989 46.3773 84.375 47.7683 84.375 49.2188C84.375 50.6692 83.7989 52.0602 82.7733 53.0857C81.7477 54.1113 80.3567 54.6875 78.9063 54.6875H74.2188C72.7684 54.6875 71.3774 54.1113 70.3518 53.0857C69.3262 52.0602 68.75 50.6692 68.75 49.2188C68.75 47.7683 69.3262 46.3773 70.3518 45.3518C71.3774 44.3262 72.7684 43.75 74.2188 43.75H78.9063ZM62.2782 73.7672C62.4982 73.745 62.7205 73.7698 62.9302 73.84C63.14 73.9101 63.3324 74.0239 63.4949 74.174C63.6574 74.3241 63.7861 74.5069 63.8727 74.7104C63.9592 74.914 64.0016 75.1336 63.9969 75.3547L63.9407 78.0797L40.9375 80.6344L36.2797 76.2719L62.2782 73.7672ZM36.4672 93.6813L7.7344 67.5328C6.75807 66.6348 6.17847 65.3857 6.12308 64.0604C6.09566 63.4041 6.19777 62.7489 6.42357 62.1321C6.64937 61.5153 6.99444 60.9491 7.43909 60.4656C7.88374 59.9822 8.41925 59.5911 9.01505 59.3146C9.61085 59.0381 10.2553 58.8817 10.9115 58.8543C12.2369 58.7989 13.5299 59.2723 14.5063 60.1703L39.3188 83.4078C39.483 83.5629 39.6791 83.6802 39.8934 83.7514C40.1077 83.8227 40.335 83.8462 40.5594 83.8203L65.3125 81.0703L90.275 89.0875C90.9043 89.2918 91.4867 89.6189 91.9886 90.05C92.4905 90.481 92.9019 91.0074 93.1989 91.5985C93.4959 92.1897 93.6726 92.8339 93.7188 93.4939C93.765 94.1539 93.6798 94.8165 93.4681 95.4432C93.2564 96.07 92.9224 96.6486 92.4854 97.1454C92.0485 97.6421 91.5173 98.0472 90.9227 98.3372C90.328 98.6272 89.6817 98.7963 89.0213 98.8347C88.3608 98.8731 87.6993 98.7801 87.075 98.5609L64.575 90.7125C64.3527 90.6467 64.1205 90.6203 63.8891 90.6344L36.4672 93.6813ZM93.75 115.625V118.75H6.51721C6.84156 117.837 7.4405 117.046 8.23188 116.487C9.02327 115.927 9.96835 115.626 10.9375 115.625H93.75ZM67.7078 107.812H85.9375C87.4559 107.814 88.9408 108.259 90.2106 109.091C91.4805 109.924 92.4802 111.108 93.0875 112.5H61.4578L67.7078 107.812ZM64.2281 106.517L59.7438 109.88L53.4719 106.875L58.8657 103.841L64.2281 106.517ZM61.7282 98.6375L46.4828 107.211C45.7829 107.604 44.9936 107.812 44.1907 107.812H42.1875C40.9443 107.812 39.752 107.319 38.873 106.44C37.9939 105.56 37.5 104.368 37.5 103.125V96.7344L63.9328 93.7969L72.6953 96.8531L62.2641 98.4563C62.0779 98.4836 61.8983 98.5451 61.7344 98.6375H61.7282Z" fill="#4D8D63"/>
<path d="M43.75 103.125C44.6129 103.125 45.3125 102.425 45.3125 101.562C45.3125 100.7 44.6129 100 43.75 100C42.8871 100 42.1875 100.7 42.1875 101.562C42.1875 102.425 42.8871 103.125 43.75 103.125Z" fill="#4D8D63"/>
<path d="M76.5625 50.7812C77.4254 50.7812 78.125 50.0817 78.125 49.2188C78.125 48.3558 77.4254 47.6562 76.5625 47.6562C75.6996 47.6562 75 48.3558 75 49.2188C75 50.0817 75.6996 50.7812 76.5625 50.7812Z" fill="#4D8D63"/>
</svg>
