<svg width="100" height="100" viewBox="0 0 100 100" fill="none" xmlns="http://www.w3.org/2000/svg">
<path d="M4.68748 96.875H82.8125C83.2269 96.875 83.6243 96.7104 83.9173 96.4174C84.2104 96.1244 84.375 95.7269 84.375 95.3125C84.372 93.5807 84.1966 91.8534 83.8516 90.1563C87.0415 88.9788 89.8766 87.0039 92.0868 84.4199C94.297 81.8359 95.8086 78.7289 96.4775 75.3951C97.1463 72.0612 96.9502 68.6116 95.9077 65.3751C94.8653 62.1385 93.0113 59.2229 90.5224 56.9061C88.0336 54.5892 84.9928 52.9485 81.69 52.1401C78.3872 51.3318 74.9324 51.3828 71.6549 52.2884C68.3774 53.1939 65.3865 54.9238 62.9671 57.3131C60.5478 59.7024 58.7807 62.6716 57.8344 65.9375C57.45 65.7813 57.0781 65.6141 56.6828 65.4547C55.3017 63.729 54.1949 61.8006 53.4016 59.7375C55.9285 58.565 58.0989 56.7427 59.6911 54.4568C61.2833 52.1709 62.2402 49.5033 62.4641 46.7266C64.236 46.372 65.8304 45.4148 66.9763 44.0176C68.1223 42.6205 68.749 40.8695 68.75 39.0625V32.3781C69.2235 32.1061 69.6171 31.7142 69.8914 31.242C70.1656 30.7697 70.3108 30.2336 70.3125 29.6875V26.5625C70.3103 26.0161 70.1649 25.4798 69.8907 25.0072C69.6165 24.5345 69.2232 24.142 68.75 23.8688V21.9672C68.8391 10.1766 54.8125 2.94065 43.7234 3.12502C29.7187 3.35784 18.75 11.625 18.75 21.9375V23.8719C18.2765 24.144 17.8829 24.5358 17.6086 25.0081C17.3344 25.4803 17.1891 26.0164 17.1875 26.5625V29.6875C17.1891 30.2336 17.3344 30.7697 17.6086 31.242C17.8829 31.7142 18.2765 32.1061 18.75 32.3781V39.0625C18.7528 40.8684 19.3806 42.6177 20.5267 44.0133C21.6728 45.4089 23.2666 46.3648 25.0375 46.7188C25.2613 49.4955 26.2182 52.1631 27.8104 54.449C29.4026 56.7349 31.573 58.5572 34.1 59.7297C33.306 61.7925 32.1993 63.7208 30.8187 65.4469C25.187 67.6347 19.7887 70.3812 14.7047 73.6453C11.1332 76.0175 8.20587 79.2386 6.18497 83.02C4.16407 86.8014 3.11268 91.025 3.12498 95.3125C3.12498 95.7269 3.2896 96.1244 3.58263 96.4174C3.87566 96.7104 4.27308 96.875 4.68748 96.875ZM76.9531 54.6875C80.2752 54.6875 83.5227 55.6726 86.285 57.5183C89.0472 59.364 91.2001 61.9873 92.4714 65.0565C93.7427 68.1257 94.0754 71.503 93.4272 74.7613C92.7791 78.0196 91.1794 81.0125 88.8303 83.3616C86.4812 85.7107 83.4883 87.3104 80.23 87.9585C76.9717 88.6066 73.5945 88.274 70.5252 87.0027C67.456 85.7314 64.8327 83.5785 62.987 80.8162C61.1414 78.054 60.1562 74.8065 60.1562 71.4844C60.1612 67.0311 61.9325 62.7616 65.0814 59.6127C68.2304 56.4637 72.4998 54.6925 76.9531 54.6875ZM57.1875 69.0531C56.7975 72.1793 57.1556 75.3534 58.2325 78.3141C59.3093 81.2747 61.0739 83.9373 63.3811 86.0825C65.6884 88.2276 68.4721 89.7941 71.5032 90.6529C74.5343 91.5116 77.7261 91.6381 80.8156 91.0219C80.9963 91.923 81.1236 92.8339 81.1969 93.75H46.1062L56.6453 68.8235L57.1875 69.0531ZM43.75 91.3L37.3922 76.2625C41.6218 76.6516 45.8782 76.6516 50.1078 76.2625L43.75 91.3ZM62.5 43.4625V37.9313L65.5437 39.8688C65.3986 40.6831 65.0405 41.4445 64.5059 42.0756C63.9714 42.7068 63.2793 43.1853 62.5 43.4625ZM65.625 36.2156L60.2766 32.8125H65.625V36.2156ZM67.1875 29.6875H54.5625C54.725 28.6522 54.725 27.5979 54.5625 26.5625H67.1875V29.6875ZM21.875 21.9375C21.875 13.3485 31.4937 6.38596 43.7766 6.25002C52.9391 6.14846 65.5234 11.5453 65.625 21.9078V23.4375H53.6172C52.7335 21.5681 51.3369 19.9881 49.59 18.8816C47.8431 17.7752 45.8178 17.1877 43.75 17.1877C41.6822 17.1877 39.6569 17.7752 37.91 18.8816C36.1631 19.9881 34.7665 21.5681 33.8828 23.4375H21.875V21.9375ZM51.5625 28.125C51.5625 29.6702 51.1043 31.1807 50.2458 32.4654C49.3874 33.7502 48.1673 34.7515 46.7397 35.3428C45.3122 35.9341 43.7413 36.0889 42.2258 35.7874C40.7104 35.486 39.3183 34.7419 38.2257 33.6493C37.1331 32.5567 36.389 31.1646 36.0876 29.6492C35.7862 28.1337 35.9409 26.5629 36.5322 25.1353C37.1235 23.7078 38.1248 22.4876 39.4096 21.6292C40.6944 20.7707 42.2048 20.3125 43.75 20.3125C45.8212 20.315 47.8069 21.1389 49.2715 22.6035C50.7361 24.0681 51.56 26.0538 51.5625 28.125ZM20.3125 29.6875V26.5625H32.9375C32.775 27.5979 32.775 28.6522 32.9375 29.6875H20.3125ZM25 43.4625C24.3356 43.2245 23.7335 42.8395 23.2387 42.3363C22.7438 41.8331 22.369 41.2246 22.1422 40.5563C23.0998 40.4788 24.0534 40.3578 25 40.1938V43.4625ZM21.875 37.4422V32.8125H33.8828C34.0999 33.272 34.3478 33.7163 34.625 34.1422C30.5644 35.8751 26.2664 36.9875 21.875 37.4422ZM28.125 39.5516C31.1021 38.7836 34.0188 37.7981 36.8515 36.6031C38.1347 37.6508 39.6396 38.3925 41.2521 38.7721C42.8646 39.1516 44.5424 39.159 46.1582 38.7937C47.7739 38.4284 49.2853 37.6999 50.5777 36.6636C51.8701 35.6273 52.9095 34.3103 53.6172 32.8125H54.4562L59.375 35.9375V44.2391L45.5328 41C44.36 40.7266 43.14 40.7266 41.9672 41L28.125 44.2453V39.5516ZM28.2125 47.4344L42.6797 44.0438C43.3838 43.8797 44.1162 43.8797 44.8203 44.0438L59.2875 47.4344C58.4687 53.8719 51.8141 58.9063 43.75 58.9063C35.6859 58.9063 29.0312 53.8719 28.2125 47.4344ZM36.9797 60.9375C41.3758 62.3938 46.1242 62.3938 50.5203 60.9375C51.3952 63.1369 52.5585 65.2102 53.9797 67.1031L51.4797 73.0016C46.338 73.549 41.1526 73.549 36.0109 73.0016L33.5109 67.1016C34.9356 65.2099 36.1021 63.137 36.9797 60.9375ZM16.4328 76.25C20.9918 73.3197 25.8199 70.8308 30.8516 68.8172L41.3937 93.75H6.30311C6.53065 90.2502 7.56314 86.8501 9.32016 83.8147C11.0772 80.7793 13.5113 78.1905 16.4328 76.25Z" fill="#4D8D63"/>
<path d="M25 85.9375H15.625C15.2106 85.9375 14.8132 86.1021 14.5201 86.3951C14.2271 86.6882 14.0625 87.0856 14.0625 87.5C14.0625 87.9144 14.2271 88.3118 14.5201 88.6049C14.8132 88.8979 15.2106 89.0625 15.625 89.0625H25C25.4144 89.0625 25.8118 88.8979 26.1049 88.6049C26.3979 88.3118 26.5625 87.9144 26.5625 87.5C26.5625 87.0856 26.3979 86.6882 26.1049 86.3951C25.8118 86.1021 25.4144 85.9375 25 85.9375Z" fill="#4D8D63"/>
<path d="M31.25 89.0625C32.1129 89.0625 32.8125 88.3629 32.8125 87.5C32.8125 86.6371 32.1129 85.9375 31.25 85.9375C30.3871 85.9375 29.6875 86.6371 29.6875 87.5C29.6875 88.3629 30.3871 89.0625 31.25 89.0625Z" fill="#4D8D63"/>
<path d="M67.3437 73.5703C68.2137 74.6294 68.7023 75.9501 68.7312 77.3203C68.7336 77.9736 68.809 78.6245 68.9562 79.2609C69.0932 80.2603 69.5733 81.1809 70.3145 81.865C71.0557 82.5492 72.0117 82.9543 73.0187 83.0109C75.8797 83.0234 76.8656 80.5109 77.3391 78.6734C77.8234 80.4828 78.725 82.9422 81.5578 83.0094C82.5848 82.9822 83.5684 82.5896 84.3319 81.9023C85.0954 81.2149 85.5888 80.2779 85.7234 79.2594C85.8706 78.6229 85.9461 77.972 85.9484 77.3188C85.9776 75.9486 86.4662 74.6279 87.3359 73.5687C87.9136 72.7395 88.3973 71.8486 88.7781 70.9125C89.4245 69.2426 89.4611 67.3981 88.8814 65.7039C88.3018 64.0096 87.1432 62.5741 85.6094 61.65C84.312 60.8899 82.8018 60.5744 81.3087 60.7516C79.8155 60.9287 78.4211 61.5887 77.3375 62.6312C76.2539 61.5887 74.8595 60.9287 73.3663 60.7516C71.8732 60.5744 70.363 60.8899 69.0656 61.65C67.5324 62.5735 66.3739 64.0081 65.7941 65.7014C65.2142 67.3947 65.25 69.2383 65.8953 70.9078C66.2777 71.8464 66.7635 72.7394 67.3437 73.5703ZM70.6594 64.3391C72.6531 63.2281 74.4875 63.9719 76.1563 65.8609C76.953 66.6562 77.8051 67.394 78.7063 68.0687C79.0425 68.3076 79.4595 68.4037 79.8664 68.3363C80.2732 68.2689 80.637 68.0434 80.8782 67.7089C81.1195 67.3745 81.2187 66.9582 81.1543 66.5508C81.0899 66.1435 80.8671 65.7781 80.5344 65.5344C80.2469 65.3266 79.9391 65.0656 79.6359 64.8125C80.2229 64.2783 80.9647 63.9449 81.7538 63.8606C82.543 63.7763 83.3385 63.9456 84.025 64.3438C84.9262 64.8957 85.6037 65.7478 85.9384 66.7502C86.2731 67.7525 86.2435 68.8408 85.8547 69.8234C85.5483 70.5452 85.1671 71.2328 84.7172 71.875C83.9367 72.9535 83.3585 74.1648 83.0109 75.45C82.8973 76.0297 82.8372 76.6187 82.8313 77.2094C82.7953 78.1469 82.7 79.8125 81.6406 79.8891C81.0328 79.9344 80.6547 79.3438 80.2266 77.3391C79.2 72.5406 75.4844 72.55 74.4609 77.3391C74.0328 79.3438 73.6547 79.9344 73.0469 79.8891C71.9875 79.8109 71.8922 78.1531 71.8562 77.2094C71.8504 76.6192 71.7902 76.0308 71.6766 75.4516C71.3293 74.1658 70.7511 72.9539 69.9703 71.875C69.5189 71.2299 69.1366 70.5391 68.8297 69.8141C68.4423 68.8318 68.4135 67.7445 68.7485 66.7431C69.0834 65.7418 69.759 64.8906 70.6594 64.3391ZM39.0625 28.125C39.0625 29.0521 39.3374 29.9584 39.8525 30.7292C40.3676 31.5001 41.0996 32.1009 41.9562 32.4557C42.8127 32.8105 43.7552 32.9033 44.6645 32.7224C45.5738 32.5416 46.409 32.0951 47.0646 31.4396C47.7201 30.784 48.1666 29.9488 48.3474 29.0395C48.5283 28.1302 48.4355 27.1877 48.0807 26.3312C47.7259 25.4746 47.1251 24.7426 46.3542 24.2275C45.5834 23.7124 44.6771 23.4375 43.75 23.4375C42.5068 23.4375 41.3145 23.9314 40.4354 24.8104C39.5564 25.6895 39.0625 26.8818 39.0625 28.125ZM45.3125 28.125C45.3125 28.434 45.2209 28.7361 45.0492 28.9931C44.8775 29.25 44.6335 29.4503 44.3479 29.5686C44.0624 29.6868 43.7483 29.7178 43.4452 29.6575C43.1421 29.5972 42.8637 29.4484 42.6451 29.2299C42.4266 29.0113 42.2778 28.7329 42.2175 28.4298C42.1572 28.1267 42.1882 27.8126 42.3064 27.5271C42.4247 27.2415 42.625 26.9975 42.8819 26.8258C43.1389 26.6541 43.441 26.5625 43.75 26.5625C44.1644 26.5625 44.5618 26.7271 44.8549 27.0201C45.1479 27.3132 45.3125 27.7106 45.3125 28.125Z" fill="#4D8D63"/>
</svg>
