<svg width="130" height="125" viewBox="0 0 130 125" fill="none" xmlns="http://www.w3.org/2000/svg">
<circle cx="77.5" cy="42.5" r="42.5" fill="#E3FFD1"/>
<path d="M4.68748 120.875H82.8125C83.2269 120.875 83.6243 120.71 83.9173 120.417C84.2104 120.124 84.375 119.727 84.375 119.313C84.372 117.581 84.1966 115.853 83.8516 114.156C87.0415 112.979 89.8766 111.004 92.0868 108.42C94.297 105.836 95.8086 102.729 96.4775 99.3951C97.1463 96.0612 96.9502 92.6116 95.9077 89.3751C94.8653 86.1385 93.0113 83.2229 90.5224 80.9061C88.0336 78.5892 84.9928 76.9485 81.69 76.1401C78.3872 75.3318 74.9324 75.3828 71.6549 76.2884C68.3774 77.1939 65.3865 78.9238 62.9671 81.3131C60.5478 83.7024 58.7807 86.6716 57.8344 89.9375C57.45 89.7813 57.0781 89.6141 56.6828 89.4547C55.3017 87.729 54.1949 85.8006 53.4015 83.7375C55.9285 82.565 58.0989 80.7427 59.6911 78.4568C61.2833 76.1709 62.2402 73.5033 62.4641 70.7266C64.2359 70.372 65.8304 69.4148 66.9763 68.0176C68.1223 66.6205 68.749 64.8695 68.75 63.0625V56.3781C69.2235 56.1061 69.6171 55.7142 69.8914 55.242C70.1656 54.7697 70.3108 54.2336 70.3125 53.6875V50.5625C70.3103 50.0161 70.1649 49.4798 69.8907 49.0072C69.6165 48.5345 69.2232 48.142 68.75 47.8688V45.9672C68.8391 34.1766 54.8125 26.9406 43.7234 27.125C29.7187 27.3578 18.75 35.625 18.75 45.9375V47.8719C18.2765 48.144 17.8829 48.5358 17.6086 49.0081C17.3344 49.4803 17.1891 50.0164 17.1875 50.5625V53.6875C17.1891 54.2336 17.3344 54.7697 17.6086 55.242C17.8829 55.7142 18.2765 56.1061 18.75 56.3781V63.0625C18.7528 64.8684 19.3806 66.6177 20.5267 68.0133C21.6728 69.4089 23.2666 70.3648 25.0375 70.7188C25.2613 73.4955 26.2182 76.1631 27.8104 78.449C29.4026 80.7349 31.573 82.5572 34.1 83.7297C33.306 85.7925 32.1993 87.7208 30.8187 89.4469C25.187 91.6347 19.7887 94.3812 14.7047 97.6453C11.1332 100.018 8.20587 103.239 6.18497 107.02C4.16407 110.801 3.11268 115.025 3.12498 119.313C3.12498 119.727 3.2896 120.124 3.58263 120.417C3.87566 120.71 4.27308 120.875 4.68748 120.875ZM76.9531 78.6875C80.2752 78.6875 83.5227 79.6726 86.285 81.5183C89.0472 83.364 91.2001 85.9873 92.4714 89.0565C93.7427 92.1257 94.0754 95.503 93.4272 98.7613C92.7791 102.02 91.1794 105.012 88.8303 107.362C86.4812 109.711 83.4883 111.31 80.23 111.959C76.9717 112.607 73.5945 112.274 70.5252 111.003C67.456 109.731 64.8327 107.578 62.987 104.816C61.1414 102.054 60.1562 98.8065 60.1562 95.4844C60.1612 91.0311 61.9325 86.7616 65.0814 83.6127C68.2304 80.4637 72.4998 78.6925 76.9531 78.6875ZM57.1875 93.0531C56.7975 96.1793 57.1556 99.3534 58.2325 102.314C59.3093 105.275 61.0739 107.937 63.3811 110.082C65.6884 112.228 68.4721 113.794 71.5032 114.653C74.5343 115.512 77.7261 115.638 80.8156 115.022C80.9963 115.923 81.1236 116.834 81.1969 117.75H46.1062L56.6453 92.8235L57.1875 93.0531ZM43.75 115.3L37.3922 100.263C41.6218 100.652 45.8782 100.652 50.1078 100.263L43.75 115.3ZM62.5 67.4625V61.9313L65.5437 63.8688C65.3986 64.6831 65.0405 65.4445 64.5059 66.0756C63.9714 66.7068 63.2793 67.1853 62.5 67.4625ZM65.625 60.2156L60.2766 56.8125H65.625V60.2156ZM67.1875 53.6875H54.5625C54.725 52.6522 54.725 51.5979 54.5625 50.5625H67.1875V53.6875ZM21.875 45.9375C21.875 37.3485 31.4937 30.386 43.7766 30.25C52.9391 30.1485 65.5234 35.5453 65.625 45.9078V47.4375H53.6172C52.7335 45.5681 51.3369 43.9881 49.59 42.8816C47.8431 41.7752 45.8178 41.1877 43.75 41.1877C41.6822 41.1877 39.6569 41.7752 37.91 42.8816C36.1631 43.9881 34.7665 45.5681 33.8828 47.4375H21.875V45.9375ZM51.5625 52.125C51.5625 53.6702 51.1043 55.1807 50.2458 56.4654C49.3874 57.7502 48.1673 58.7515 46.7397 59.3428C45.3122 59.9341 43.7413 60.0889 42.2258 59.7874C40.7104 59.486 39.3183 58.7419 38.2257 57.6493C37.1331 56.5567 36.389 55.1646 36.0876 53.6492C35.7862 52.1337 35.9409 50.5629 36.5322 49.1353C37.1235 47.7078 38.1248 46.4876 39.4096 45.6292C40.6944 44.7707 42.2048 44.3125 43.75 44.3125C45.8212 44.315 47.8069 45.1389 49.2715 46.6035C50.7361 48.0681 51.56 50.0538 51.5625 52.125ZM20.3125 53.6875V50.5625H32.9375C32.775 51.5979 32.775 52.6522 32.9375 53.6875H20.3125ZM25 67.4625C24.3356 67.2245 23.7335 66.8395 23.2387 66.3363C22.7438 65.8331 22.369 65.2246 22.1422 64.5563C23.0998 64.4788 24.0534 64.3578 25 64.1938V67.4625ZM21.875 61.4422V56.8125H33.8828C34.0999 57.272 34.3478 57.7163 34.625 58.1422C30.5644 59.8751 26.2664 60.9875 21.875 61.4422ZM28.125 63.5516C31.1021 62.7836 34.0188 61.7981 36.8515 60.6032C38.1347 61.6508 39.6396 62.3925 41.2521 62.7721C42.8646 63.1516 44.5424 63.159 46.1582 62.7937C47.7739 62.4284 49.2853 61.6999 50.5777 60.6636C51.8701 59.6273 52.9095 58.3103 53.6172 56.8125H54.4562L59.375 59.9375V68.2391L45.5328 65C44.36 64.7266 43.14 64.7266 41.9672 65L28.125 68.2453V63.5516ZM28.2125 71.4344L42.6797 68.0438C43.3838 67.8797 44.1162 67.8797 44.8203 68.0438L59.2875 71.4344C58.4687 77.8719 51.8141 82.9063 43.75 82.9063C35.6859 82.9063 29.0312 77.8719 28.2125 71.4344ZM36.9797 84.9375C41.3757 86.3938 46.1242 86.3938 50.5203 84.9375C51.3952 87.1369 52.5585 89.2102 53.9797 91.1031L51.4797 97.0016C46.338 97.549 41.1526 97.549 36.0109 97.0016L33.5109 91.1016C34.9356 89.2099 36.1021 87.137 36.9797 84.9375ZM16.4328 100.25C20.9918 97.3197 25.8199 94.8308 30.8516 92.8172L41.3937 117.75H6.30311C6.53065 114.25 7.56314 110.85 9.32016 107.815C11.0772 104.779 13.5113 102.19 16.4328 100.25Z" fill="#4D8D63"/>
<path d="M25 109.938H15.625C15.2106 109.938 14.8132 110.102 14.5201 110.395C14.2271 110.688 14.0625 111.086 14.0625 111.5C14.0625 111.914 14.2271 112.312 14.5201 112.605C14.8132 112.898 15.2106 113.062 15.625 113.062H25C25.4144 113.062 25.8118 112.898 26.1049 112.605C26.3979 112.312 26.5625 111.914 26.5625 111.5C26.5625 111.086 26.3979 110.688 26.1049 110.395C25.8118 110.102 25.4144 109.938 25 109.938Z" fill="#4D8D63"/>
<path d="M31.25 113.062C32.1129 113.062 32.8125 112.363 32.8125 111.5C32.8125 110.637 32.1129 109.938 31.25 109.938C30.3871 109.938 29.6875 110.637 29.6875 111.5C29.6875 112.363 30.3871 113.062 31.25 113.062Z" fill="#4D8D63"/>
<path d="M67.3437 97.5703C68.2137 98.6294 68.7023 99.9501 68.7312 101.32C68.7336 101.974 68.809 102.624 68.9562 103.261C69.0932 104.26 69.5733 105.181 70.3145 105.865C71.0557 106.549 72.0117 106.954 73.0187 107.011C75.8797 107.023 76.8656 104.511 77.3391 102.673C77.8234 104.483 78.725 106.942 81.5578 107.009C82.5848 106.982 83.5684 106.59 84.3319 105.902C85.0954 105.215 85.5888 104.278 85.7234 103.259C85.8706 102.623 85.9461 101.972 85.9484 101.319C85.9776 99.9486 86.4662 98.6279 87.3359 97.5687C87.9136 96.7395 88.3973 95.8486 88.7781 94.9125C89.4245 93.2426 89.4611 91.3981 88.8814 89.7039C88.3018 88.0096 87.1432 86.5741 85.6094 85.65C84.312 84.8899 82.8018 84.5744 81.3087 84.7516C79.8155 84.9287 78.4211 85.5887 77.3375 86.6312C76.2539 85.5887 74.8595 84.9287 73.3663 84.7516C71.8732 84.5744 70.363 84.8899 69.0656 85.65C67.5324 86.5735 66.3739 88.0081 65.7941 89.7014C65.2142 91.3947 65.25 93.2383 65.8953 94.9078C66.2777 95.8464 66.7635 96.7394 67.3437 97.5703ZM70.6594 88.3391C72.6531 87.2281 74.4875 87.9719 76.1563 89.8609C76.953 90.6562 77.8051 91.394 78.7063 92.0687C79.0425 92.3076 79.4595 92.4037 79.8664 92.3363C80.2732 92.2689 80.637 92.0434 80.8782 91.7089C81.1195 91.3745 81.2187 90.9582 81.1543 90.5508C81.0899 90.1435 80.8671 89.7781 80.5344 89.5344C80.2469 89.3266 79.9391 89.0656 79.6359 88.8125C80.2229 88.2783 80.9647 87.9449 81.7538 87.8606C82.543 87.7763 83.3385 87.9456 84.025 88.3438C84.9262 88.8957 85.6037 89.7478 85.9384 90.7502C86.2731 91.7525 86.2435 92.8408 85.8547 93.8234C85.5483 94.5452 85.1671 95.2328 84.7172 95.875C83.9367 96.9535 83.3585 98.1648 83.0109 99.45C82.8973 100.03 82.8372 100.619 82.8313 101.209C82.7953 102.147 82.7 103.813 81.6406 103.889C81.0328 103.934 80.6547 103.344 80.2266 101.339C79.2 96.5406 75.4844 96.55 74.4609 101.339C74.0328 103.344 73.6547 103.934 73.0469 103.889C71.9875 103.811 71.8922 102.153 71.8562 101.209C71.8504 100.619 71.7902 100.031 71.6766 99.4516C71.3293 98.1658 70.7511 96.9539 69.9703 95.875C69.5189 95.2299 69.1366 94.5391 68.8297 93.8141C68.4423 92.8318 68.4135 91.7445 68.7485 90.7431C69.0834 89.7418 69.759 88.8906 70.6594 88.3391ZM39.0625 52.125C39.0625 53.0521 39.3374 53.9584 39.8525 54.7292C40.3676 55.5001 41.0996 56.1009 41.9562 56.4557C42.8127 56.8105 43.7552 56.9033 44.6645 56.7224C45.5738 56.5416 46.409 56.0951 47.0646 55.4396C47.7201 54.784 48.1666 53.9488 48.3474 53.0395C48.5283 52.1302 48.4355 51.1877 48.0807 50.3312C47.7259 49.4746 47.1251 48.7426 46.3542 48.2275C45.5834 47.7124 44.6771 47.4375 43.75 47.4375C42.5068 47.4375 41.3145 47.9314 40.4354 48.8104C39.5564 49.6895 39.0625 50.8818 39.0625 52.125ZM45.3125 52.125C45.3125 52.434 45.2209 52.7361 45.0492 52.9931C44.8775 53.25 44.6335 53.4503 44.3479 53.5686C44.0624 53.6868 43.7483 53.7178 43.4452 53.6575C43.1421 53.5972 42.8637 53.4484 42.6451 53.2299C42.4266 53.0113 42.2778 52.7329 42.2175 52.4298C42.1572 52.1267 42.1882 51.8126 42.3064 51.5271C42.4247 51.2415 42.625 50.9975 42.8819 50.8258C43.1389 50.6541 43.441 50.5625 43.75 50.5625C44.1644 50.5625 44.5618 50.7271 44.8549 51.0201C45.1479 51.3132 45.3125 51.7106 45.3125 52.125Z" fill="#4D8D63"/>
</svg>
