<svg width="100" height="100" viewBox="0 0 100 100" fill="none" xmlns="http://www.w3.org/2000/svg">
<path d="M28.3937 15.7141C24.2419 15.753 20.2268 17.2027 17.0078 19.825C16.8395 19.9505 16.6983 20.1087 16.5926 20.29C16.4868 20.4713 16.4187 20.6721 16.3922 20.8803C16.3658 21.0885 16.3815 21.2999 16.4386 21.5019C16.4956 21.7039 16.5928 21.8924 16.7243 22.056C16.8558 22.2196 17.0189 22.3551 17.2039 22.4542C17.3888 22.5534 17.5919 22.6143 17.801 22.6333C18.01 22.6523 18.2207 22.629 18.4206 22.5647C18.6204 22.5005 18.8052 22.3966 18.964 22.2594C21.6287 20.0834 24.9537 18.8774 28.3937 18.8391C28.8081 18.8391 29.2055 18.6744 29.4986 18.3814C29.7916 18.0884 29.9562 17.691 29.9562 17.2766C29.9562 16.8621 29.7916 16.4647 29.4986 16.1717C29.2055 15.8787 28.8081 15.7141 28.3937 15.7141Z" fill="#4D8D63"/>
<path d="M95.0094 45.8781C96.5099 42.05 97.1226 37.9314 96.8013 33.8322C96.4801 29.7331 95.2333 25.7602 93.1547 22.2125L94.6719 21.3828C95.3389 21.0185 95.8955 20.4813 96.2833 19.8277C96.6711 19.174 96.8757 18.428 96.8757 17.668C96.8757 16.908 96.6711 16.1619 96.2833 15.5083C95.8955 14.8546 95.3389 14.3174 94.6719 13.9531L92.7641 12.9094C91.2311 12.0719 89.9711 10.8115 89.1344 9.27814L88.0906 7.37189C87.7257 6.70533 87.1883 6.1492 86.5345 5.7618C85.8808 5.3744 85.1349 5.16998 84.375 5.16998C83.6151 5.16998 82.8692 5.3744 82.2155 5.7618C81.5617 6.1492 81.0243 6.70533 80.6594 7.37189L79.6156 9.2797C79.3554 9.74392 79.0553 10.1846 78.7188 10.5969C68.8859 7.48751 58.55 10.8719 50 20.0188C38.6094 7.81251 26.1156 7.74689 17.5156 12.0969C10.1812 12.6484 5.39843 15.0656 3.69999 19.1281C3.18136 20.5526 2.97247 22.0712 3.08725 23.5827C3.20203 25.0943 3.63784 26.564 4.36561 27.8938C2.52468 33.7855 2.74511 40.1284 4.99061 45.8781C6.52695 49.5834 8.46566 53.1087 10.7719 56.3906C13.475 60.5375 16.0281 64.4563 17.0781 69.1375C17.4616 71.1463 17.6588 73.1862 17.6672 75.2313C17.6684 77.678 17.9419 80.117 18.4828 82.5031C20.5781 90.4813 25.2625 94.975 31.4516 94.8328C41.1969 94.611 43.6109 85.1359 45.55 77.5313C46.7062 73 47.7484 68.2375 50.0031 68.2375C52.2578 68.2375 53.3 72.9985 54.4562 77.5313C56.3953 85.1359 58.8094 94.6016 68.5531 94.8328C74.7141 94.9031 79.4297 90.4859 81.5219 82.5031C82.0627 80.117 82.3363 77.678 82.3375 75.2313C82.3459 73.1862 82.5431 71.1463 82.9266 69.1375C83.2542 67.7243 83.7119 66.3445 84.2937 65.0156C90.6328 64.2625 94.8266 61.9235 96.4 58.1844C97.7141 55.0688 97.0344 51.2484 94.4891 47.1016C94.6562 46.6906 94.8531 46.2969 95.0094 45.8781ZM82.3562 10.7813L83.4 8.87501C83.496 8.70036 83.6371 8.5547 83.8086 8.45325C83.9801 8.35179 84.1757 8.29826 84.375 8.29826C84.5743 8.29826 84.7699 8.35179 84.9414 8.45325C85.1129 8.5547 85.254 8.70036 85.35 8.87501L86.3937 10.7813C87.5162 12.8392 89.2069 14.5309 91.2641 15.6547L93.1734 16.6984C93.3481 16.7942 93.4939 16.9351 93.5954 17.1065C93.6969 17.2779 93.7504 17.4735 93.7504 17.6727C93.7504 17.8719 93.6969 18.0674 93.5954 18.2388C93.4939 18.4102 93.3481 18.5511 93.1734 18.6469L91.2641 19.6906C89.207 20.8132 87.5163 22.5039 86.3937 24.5609L85.35 26.4703C85.254 26.645 85.1129 26.7906 84.9414 26.8921C84.7699 26.9935 84.5743 27.0471 84.375 27.0471C84.1757 27.0471 83.9801 26.9935 83.8086 26.8921C83.6371 26.7906 83.496 26.645 83.4 26.4703L82.3562 24.5641C81.2348 22.5046 79.544 20.8116 77.4859 19.6875L75.5766 18.6422C75.4018 18.5467 75.256 18.4059 75.1545 18.2346C75.0529 18.0634 74.9993 17.8679 74.9993 17.6688C74.9993 17.4696 75.0529 17.2742 75.1545 17.1029C75.256 16.9316 75.4018 16.7908 75.5766 16.6953L77.4844 15.6516C79.5417 14.5289 81.2329 12.8382 82.3562 10.7813ZM6.57499 20.3391C7.07348 19.3898 7.76315 18.5541 8.60055 17.8845C9.43795 17.2149 10.4049 16.7259 11.4406 16.4484C9.33806 18.4821 7.57507 20.8396 6.21874 23.4313C6.06107 22.3851 6.18623 21.3158 6.58124 20.3344L6.57499 20.3391ZM79.8641 68.4641C79.4354 70.6593 79.2131 72.8899 79.2 75.1266C79.2051 77.3441 78.9651 79.5555 78.4844 81.7203C77.4922 85.5188 74.825 91.8328 68.6187 91.7203C61.2422 91.5469 59.3266 84.0344 57.475 76.7719C55.9672 70.9406 54.5969 64.9313 49.8187 65.1156C45.3312 65.2875 43.9781 71.0531 42.5187 76.7719C40.6656 84.0344 38.7516 91.5344 31.375 91.7203C25.1391 91.8766 22.5016 85.5234 21.5094 81.7203C21.0287 79.5555 20.7887 77.3441 20.7937 75.1266C20.7806 72.8899 20.5583 70.6593 20.1297 68.4641C18.9578 63.2328 16.1297 58.8922 13.3937 54.6938C11.2094 51.6021 9.37179 48.2795 7.91405 44.7859C6.30512 40.6391 5.86097 36.1311 6.62968 31.75C12.7687 40.3438 26.2687 49.7906 42.4875 56.6203C56.5609 62.4516 69.675 65.586 80.8219 65.2953C80.4364 66.3256 80.1185 67.3799 79.8703 68.4516L79.8641 68.4641ZM82.1984 62.0906C72.1984 62.8094 57.9031 59.725 43.6937 53.7406C26.4234 46.4688 12.4437 36.3031 7.73593 27.6656C9.58046 22.6445 13.066 18.3931 17.6281 15.6C25.3953 10.9719 37.6187 10.5719 48.6906 23.2563C50.4281 26.7188 52.3437 31.3703 60.9375 31.4609C61.3519 31.4609 61.7493 31.2963 62.0424 31.0033C62.3354 30.7103 62.5 30.3128 62.5 29.8984C62.5 29.484 62.3354 29.0866 62.0424 28.7936C61.7493 28.5006 61.3519 28.3359 60.9375 28.3359C54.8437 28.3359 53.2656 25.4797 51.875 22.6234C59.05 14.7234 67.5625 11.3328 75.75 13.0406L74.0828 13.9516C73.4158 14.3161 72.8593 14.8535 72.4715 15.5072C72.0838 16.161 71.8792 16.9071 71.8792 17.6672C71.8792 18.4273 72.0838 19.1734 72.4715 19.8272C72.8593 20.4809 73.4158 21.0183 74.0828 21.3828L75.9906 22.4266C77.524 23.2635 78.784 24.5241 79.6203 26.0578L80.6641 27.9625C81.0286 28.6295 81.5659 29.1861 82.2197 29.5738C82.8735 29.9615 83.6196 30.1661 84.3797 30.1661C85.1398 30.1661 85.8859 29.9615 86.5396 29.5738C87.1934 29.1861 87.7308 28.6295 88.0953 27.9625L89.1391 26.0547C89.5339 25.3397 90.0226 24.6808 90.5922 24.0953C92.3658 27.2133 93.4208 30.688 93.68 34.2657C93.9392 37.8435 93.3962 41.4339 92.0906 44.775C90.6312 48.2701 88.792 51.5943 86.6062 54.6875C84.9958 57.0629 83.5261 59.5306 82.2047 62.0781L82.1984 62.0906ZM93.5062 56.9813C92.5594 59.2313 89.8875 60.825 85.9828 61.6094C86.9687 59.8656 88.0766 58.1516 89.2187 56.4C90.4484 54.511 91.6859 52.5719 92.8031 50.5453C93.3608 51.5081 93.7119 52.5765 93.834 53.6824C93.9561 54.7883 93.8466 55.9075 93.5125 56.9688L93.5062 56.9813Z" fill="#4D8D63"/>
<path d="M78.475 33.8578L77.4063 33.2812C76.6635 32.875 76.0533 32.2637 75.6484 31.5203L75.0641 30.4531C74.8007 29.9709 74.4123 29.5685 73.9396 29.2883C73.467 29.0082 72.9276 28.8605 72.3781 28.8609C71.8289 28.8589 71.2892 29.0048 70.8158 29.2833C70.3423 29.5618 69.9526 29.9627 69.6875 30.4437L69.1031 31.5125C68.699 32.259 68.0881 32.8732 67.3438 33.2812L66.2766 33.864C65.7948 34.1275 65.3927 34.5157 65.1127 34.988C64.8326 35.4603 64.6848 35.9993 64.6848 36.5484C64.6848 37.0975 64.8326 37.6365 65.1127 38.1088C65.3927 38.5811 65.7948 38.9694 66.2766 39.2328L67.3453 39.8187C68.0887 40.2238 68.6996 40.8347 69.1047 41.5781L69.6891 42.6453C69.9522 43.1275 70.3403 43.5299 70.8127 43.8103C71.285 44.0908 71.8241 44.2388 72.3734 44.239C72.9228 44.2388 73.4619 44.0909 73.9344 43.8107C74.407 43.5306 74.7955 43.1286 75.0594 42.6469L75.6438 41.5765C76.0493 40.8344 76.6594 40.2242 77.4016 39.8187L78.4703 39.2344C78.9521 38.9709 79.3542 38.5827 79.6342 38.1104C79.9143 37.6381 80.0621 37.0991 80.0621 36.55C80.0621 36.0009 79.9143 35.4619 79.6342 34.9896C79.3542 34.5173 78.9521 34.129 78.4703 33.8656L78.475 33.8578ZM75.9078 37.0703C74.6402 37.7616 73.5982 38.803 72.9063 40.0703L72.4375 41.1375L71.8531 40.0719C71.1617 38.8038 70.1196 37.7618 68.8516 37.0703L67.7828 36.6015L68.85 36.0172C70.1181 35.3253 71.1606 34.2834 71.8531 33.0156L72.3219 31.9469L72.9063 33.014C73.5986 34.2814 74.6405 35.3232 75.9078 36.0156L76.9766 36.4844L75.9078 37.0703Z" fill="#4D8D63"/>
<path d="M14.0625 27.0422C14.9254 27.0422 15.625 26.3426 15.625 25.4797C15.625 24.6167 14.9254 23.9172 14.0625 23.9172C13.1996 23.9172 12.5 24.6167 12.5 25.4797C12.5 26.3426 13.1996 27.0422 14.0625 27.0422Z" fill="#4D8D63"/>
</svg>
