<svg width="130" height="125" viewBox="0 0 130 125" fill="none" xmlns="http://www.w3.org/2000/svg">
<circle cx="74.5" cy="42.5" r="42.5" fill="#E3FFD1"/>
<path d="M28.3937 40.714C24.2419 40.753 20.2268 42.2027 17.0078 44.8249C16.8395 44.9505 16.6983 45.1086 16.5926 45.2899C16.4868 45.4712 16.4187 45.672 16.3922 45.8802C16.3658 46.0885 16.3815 46.2999 16.4386 46.5019C16.4956 46.7039 16.5928 46.8923 16.7243 47.0559C16.8558 47.2195 17.0189 47.355 17.2039 47.4542C17.3888 47.5534 17.5919 47.6143 17.801 47.6333C18.01 47.6523 18.2207 47.6289 18.4206 47.5647C18.6204 47.5004 18.8052 47.3966 18.964 47.2593C21.6287 45.0834 24.9537 43.8774 28.3937 43.839C28.8081 43.839 29.2055 43.6744 29.4986 43.3813C29.7916 43.0883 29.9562 42.6909 29.9562 42.2765C29.9562 41.8621 29.7916 41.4647 29.4986 41.1716C29.2055 40.8786 28.8081 40.714 28.3937 40.714Z" fill="#4D8D63"/>
<path d="M95.0094 70.8781C96.5099 67.0499 97.1226 62.9313 96.8013 58.8321C96.4801 54.733 95.2332 50.7601 93.1547 47.2124L94.6719 46.3828C95.3389 46.0185 95.8955 45.4813 96.2833 44.8276C96.6711 44.174 96.8757 43.4279 96.8757 42.6679C96.8757 41.9079 96.6711 41.1619 96.2833 40.5082C95.8955 39.8546 95.3389 39.3174 94.6719 38.9531L92.7641 37.9093C91.2311 37.0719 89.9711 35.8114 89.1344 34.2781L88.0906 32.3718C87.7257 31.7053 87.1883 31.1491 86.5345 30.7617C85.8808 30.3743 85.1349 30.1699 84.375 30.1699C83.6151 30.1699 82.8692 30.3743 82.2155 30.7617C81.5617 31.1491 81.0243 31.7053 80.6594 32.3718L79.6156 34.2796C79.3554 34.7439 79.0553 35.1846 78.7187 35.5968C68.8859 32.4874 58.55 35.8718 50 45.0187C38.6094 32.8124 26.1156 32.7468 17.5156 37.0968C10.1812 37.6484 5.39843 40.0656 3.69999 44.1281C3.18136 45.5525 2.97247 47.0711 3.08725 48.5827C3.20203 50.0942 3.63784 51.5639 4.36561 52.8937C2.52468 58.7854 2.74511 65.1284 4.99061 70.8781C6.52695 74.5834 8.46566 78.1087 10.7719 81.3906C13.475 85.5375 16.0281 89.4562 17.0781 94.1375C17.4616 96.1462 17.6588 98.1862 17.6672 100.231C17.6684 102.678 17.9419 105.117 18.4828 107.503C20.5781 115.481 25.2625 119.975 31.4516 119.833C41.1969 119.611 43.6109 110.136 45.55 102.531C46.7062 98 47.7484 93.2375 50.0031 93.2375C52.2578 93.2375 53.3 97.9984 54.4562 102.531C56.3953 110.136 58.8094 119.602 68.5531 119.833C74.7141 119.903 79.4297 115.486 81.5219 107.503C82.0627 105.117 82.3363 102.678 82.3375 100.231C82.3459 98.1862 82.5431 96.1462 82.9266 94.1375C83.2542 92.7243 83.7119 91.3444 84.2937 90.0156C90.6328 89.2625 94.8266 86.9234 96.4 83.1843C97.7141 80.0687 97.0344 76.2484 94.4891 72.1015C94.6562 71.6906 94.8531 71.2968 95.0094 70.8781ZM82.3562 35.7812L83.4 33.8749C83.496 33.7003 83.6371 33.5546 83.8086 33.4532C83.9801 33.3517 84.1757 33.2982 84.375 33.2982C84.5743 33.2982 84.7699 33.3517 84.9414 33.4532C85.1129 33.5546 85.254 33.7003 85.35 33.8749L86.3937 35.7812C87.5162 37.8391 89.2069 39.5308 91.2641 40.6546L93.1734 41.6984C93.3481 41.7941 93.4938 41.9351 93.5954 42.1065C93.6969 42.2779 93.7504 42.4734 93.7504 42.6726C93.7504 42.8718 93.6969 43.0673 93.5954 43.2387C93.4938 43.4101 93.3481 43.5511 93.1734 43.6468L91.2641 44.6906C89.207 45.8132 87.5164 47.5038 86.3937 49.5609L85.35 51.4703C85.254 51.6449 85.1129 51.7906 84.9414 51.892C84.7699 51.9935 84.5743 52.047 84.375 52.047C84.1757 52.047 83.9801 51.9935 83.8086 51.892C83.6371 51.7906 83.496 51.6449 83.4 51.4703L82.3562 49.564C81.2348 47.5045 79.544 45.8115 77.4859 44.6874L75.5766 43.6421C75.4018 43.5466 75.256 43.4058 75.1545 43.2346C75.0529 43.0633 74.9993 42.8678 74.9993 42.6687C74.9993 42.4696 75.0529 42.2741 75.1545 42.1028C75.256 41.9316 75.4018 41.7908 75.5766 41.6953L77.4844 40.6515C79.5417 39.5288 81.2329 37.8382 82.3562 35.7812ZM6.57499 45.339C7.07348 44.3897 7.76315 43.554 8.60055 42.8844C9.43795 42.2148 10.4049 41.7259 11.4406 41.4484C9.33806 43.482 7.57507 45.8395 6.21874 48.4312C6.06107 47.3851 6.18623 46.3158 6.58124 45.3343L6.57499 45.339ZM79.8641 93.464C79.4354 95.6593 79.2131 97.8898 79.2 100.127C79.2051 102.344 78.9651 104.555 78.4844 106.72C77.4922 110.519 74.825 116.833 68.6187 116.72C61.2422 116.547 59.3266 109.034 57.475 101.772C55.9672 95.9406 54.5969 89.9312 49.8187 90.1156C45.3312 90.2875 43.9781 96.0531 42.5187 101.772C40.6656 109.034 38.7516 116.534 31.375 116.72C25.1391 116.877 22.5016 110.523 21.5094 106.72C21.0287 104.555 20.7887 102.344 20.7937 100.127C20.7806 97.8898 20.5583 95.6593 20.1297 93.464C18.9578 88.2328 16.1297 83.8921 13.3937 79.6937C11.2094 76.602 9.37179 73.2794 7.91405 69.7859C6.30512 65.639 5.86097 61.1311 6.62968 56.7499C12.7687 65.3437 26.2687 74.7906 42.4875 81.6203C56.5609 87.4515 69.675 90.5859 80.8219 90.2953C80.4364 91.3255 80.1185 92.3799 79.8703 93.4515L79.8641 93.464ZM82.1984 87.0906C72.1984 87.8093 57.9031 84.725 43.6937 78.7406C26.4234 71.4687 12.4437 61.3031 7.73593 52.6656C9.58046 47.6445 13.066 43.3931 17.6281 40.5999C25.3953 35.9718 37.6187 35.5718 48.6906 48.2562C50.4281 51.7187 52.3437 56.3703 60.9375 56.4609C61.3519 56.4609 61.7493 56.2963 62.0423 56.0032C62.3354 55.7102 62.5 55.3128 62.5 54.8984C62.5 54.484 62.3354 54.0866 62.0423 53.7935C61.7493 53.5005 61.3519 53.3359 60.9375 53.3359C54.8437 53.3359 53.2656 50.4796 51.875 47.6234C59.05 39.7234 67.5625 36.3328 75.75 38.0406L74.0828 38.9515C73.4158 39.3161 72.8593 39.8534 72.4715 40.5072C72.0838 41.1609 71.8792 41.907 71.8792 42.6671C71.8792 43.4272 72.0838 44.1733 72.4715 44.8271C72.8593 45.4809 73.4158 46.0182 74.0828 46.3828L75.9906 47.4265C77.524 48.2634 78.784 49.524 79.6203 51.0578L80.6641 52.9624C81.0286 53.6294 81.5659 54.186 82.2197 54.5737C82.8735 54.9614 83.6196 55.166 84.3797 55.166C85.1398 55.166 85.8859 54.9614 86.5396 54.5737C87.1934 54.186 87.7308 53.6294 88.0953 52.9624L89.1391 51.0546C89.5339 50.3397 90.0226 49.6807 90.5922 49.0953C92.3658 52.2132 93.4207 55.6879 93.68 59.2657C93.9392 62.8434 93.3962 66.4339 92.0906 69.7749C90.6312 73.2701 88.792 76.5942 86.6062 79.6874C84.9958 82.0628 83.5261 84.5306 82.2047 87.0781L82.1984 87.0906ZM93.5062 81.9812C92.5594 84.2312 89.8875 85.825 85.9828 86.6093C86.9687 84.8656 88.0766 83.1515 89.2187 81.4C90.4484 79.5109 91.6859 77.5718 92.8031 75.5453C93.3608 76.508 93.7119 77.5764 93.834 78.6823C93.9561 79.7882 93.8466 80.9074 93.5125 81.9687L93.5062 81.9812Z" fill="#4D8D63"/>
<path d="M78.475 58.8577L77.4063 58.2812C76.6635 57.875 76.0533 57.2637 75.6484 56.5202L75.0641 55.453C74.8007 54.9708 74.4123 54.5685 73.9396 54.2883C73.467 54.0081 72.9276 53.8605 72.3781 53.8609C71.8289 53.8589 71.2892 54.0048 70.8158 54.2833C70.3423 54.5618 69.9526 54.9626 69.6875 55.4437L69.1031 56.5124C68.699 57.259 68.0881 57.8731 67.3438 58.2812L66.2766 58.864C65.7948 59.1274 65.3927 59.5156 65.1127 59.9879C64.8326 60.4603 64.6848 60.9993 64.6848 61.5484C64.6848 62.0975 64.8326 62.6365 65.1127 63.1088C65.3927 63.5811 65.7948 63.9693 66.2766 64.2327L67.3453 64.8187C68.0887 65.2238 68.6996 65.8346 69.1047 66.578L69.6891 67.6452C69.9522 68.1274 70.3403 68.5298 70.8127 68.8103C71.285 69.0907 71.8241 69.2388 72.3734 69.239C72.9228 69.2387 73.4619 69.0908 73.9344 68.8107C74.407 68.5306 74.7955 68.1286 75.0594 67.6468L75.6438 66.5765C76.0493 65.8343 76.6594 65.2242 77.4016 64.8187L78.4703 64.2343C78.9521 63.9709 79.3542 63.5827 79.6342 63.1103C79.9143 62.638 80.0621 62.099 80.0621 61.5499C80.0621 61.0008 79.9143 60.4618 79.6342 59.9895C79.3542 59.5172 78.9521 59.129 78.4703 58.8655L78.475 58.8577ZM75.9078 62.0702C74.6402 62.7616 73.5982 63.803 72.9063 65.0702L72.4375 66.1374L71.8531 65.0718C71.1617 63.8037 70.1196 62.7617 68.8516 62.0702L67.7828 61.6015L68.85 61.0171C70.1181 60.3252 71.1606 59.2833 71.8531 58.0155L72.3219 56.9468L72.9063 58.014C73.5986 59.2813 74.6405 60.3232 75.9078 61.0155L76.9766 61.4843L75.9078 62.0702Z" fill="#4D8D63"/>
<path d="M14.0625 52.0421C14.9254 52.0421 15.625 51.3426 15.625 50.4796C15.625 49.6167 14.9254 48.9171 14.0625 48.9171C13.1996 48.9171 12.5 49.6167 12.5 50.4796C12.5 51.3426 13.1996 52.0421 14.0625 52.0421Z" fill="#4D8D63"/>
</svg>
