<svg width="100" height="100" viewBox="0 0 100 100" fill="none" xmlns="http://www.w3.org/2000/svg">
<g clip-path="url(#clip0_206_166)">
<path d="M6.77832 98.5352H93.2221M51.0844 11.5553H71.115V18.4168H51.0844V11.5553ZM75.3908 98.5352H24.6096V19.3934C24.6096 19.1344 24.7125 18.886 24.8956 18.7029C25.0787 18.5197 25.3271 18.4168 25.5861 18.4168H74.4143C74.6733 18.4168 74.9216 18.5197 75.1048 18.7029C75.2879 18.886 75.3908 19.1344 75.3908 19.3934V98.5352Z" stroke="#4D8D63" stroke-width="3" stroke-miterlimit="10" stroke-linecap="round" stroke-linejoin="round"/>
<path d="M41.9473 6.8084H37.7756C37.6202 6.8084 37.4712 6.74667 37.3613 6.63678C37.2514 6.5269 37.1897 6.37786 37.1897 6.22246V2.05078C37.1897 1.89538 37.128 1.74635 37.0181 1.63646C36.9082 1.52658 36.7592 1.46484 36.6038 1.46484H31.5108C31.3554 1.46484 31.2064 1.52658 31.0965 1.63646C30.9866 1.74635 30.9249 1.89538 30.9249 2.05078V6.22246C30.9249 6.37786 30.8631 6.5269 30.7532 6.63678C30.6434 6.74667 30.4943 6.8084 30.3389 6.8084H26.1672C26.0118 6.8084 25.8628 6.87013 25.7529 6.98002C25.643 7.0899 25.5813 7.23894 25.5813 7.39434V12.4873C25.5813 12.6427 25.643 12.7917 25.7529 12.9016C25.8628 13.0115 26.0118 13.0732 26.1672 13.0732H30.3389C30.4943 13.0732 30.6434 13.135 30.7532 13.2449C30.8631 13.3547 30.9249 13.5038 30.9249 13.6592V18.4168H37.1897V13.6592C37.1897 13.5038 37.2514 13.3547 37.3613 13.2449C37.4712 13.135 37.6202 13.0732 37.7756 13.0732H41.9473C42.1027 13.0732 42.2517 13.0115 42.3616 12.9016C42.4715 12.7917 42.5333 12.6427 42.5333 12.4873V7.39434C42.5333 7.23894 42.4715 7.0899 42.3616 6.98002C42.2517 6.87013 42.1027 6.8084 41.9473 6.8084ZM38.3866 98.5352H61.6137V75.2611C61.6137 74.9935 61.5074 74.7369 61.3182 74.5477C61.129 74.3585 60.8723 74.2521 60.6047 74.2521H39.3958C39.1282 74.2521 38.8715 74.3585 38.6823 74.5477C38.4931 74.7369 38.3868 74.9935 38.3868 75.2611V98.5352H38.3866Z" stroke="#4D8D63" stroke-width="3" stroke-miterlimit="10" stroke-linecap="round" stroke-linejoin="round"/>
<path d="M38.3865 98.5351H50.0001V74.2521H39.3956C39.128 74.2521 38.8714 74.3584 38.6822 74.5477C38.493 74.7369 38.3866 74.9935 38.3866 75.2611V98.5351H38.3865ZM39.5255 34.9652H32.6251C32.4697 34.9652 32.3207 34.9035 32.2108 34.7936C32.1009 34.6837 32.0392 34.5347 32.0392 34.3793V27.4787C32.0392 27.3233 32.1009 27.1743 32.2108 27.0644C32.3207 26.9545 32.4697 26.8928 32.6251 26.8928H39.5257C39.6811 26.8928 39.8301 26.9545 39.94 27.0644C40.0499 27.1743 40.1116 27.3233 40.1116 27.4787V34.3793C40.1116 34.5347 40.0498 34.6837 39.9399 34.7936C39.83 34.9035 39.6809 34.9652 39.5255 34.9652ZM53.4503 34.9652H46.5497C46.3943 34.9652 46.2453 34.9035 46.1354 34.7936C46.0255 34.6837 45.9638 34.5347 45.9638 34.3793V27.4787C45.9638 27.3233 46.0255 27.1743 46.1354 27.0644C46.2453 26.9545 46.3943 26.8928 46.5497 26.8928H53.4503C53.6057 26.8928 53.7548 26.9545 53.8646 27.0644C53.9745 27.1743 54.0363 27.3233 54.0363 27.4787V34.3793C54.0363 34.5347 53.9745 34.6837 53.8646 34.7936C53.7548 34.9035 53.6057 34.9652 53.4503 34.9652ZM67.3753 34.9652H60.4747C60.3193 34.9652 60.1703 34.9035 60.0604 34.7936C59.9505 34.6837 59.8888 34.5347 59.8888 34.3793V27.4787C59.8888 27.3233 59.9505 27.1743 60.0604 27.0644C60.1703 26.9545 60.3193 26.8928 60.4747 26.8928H67.3753C67.5307 26.8928 67.6798 26.9545 67.7896 27.0644C67.8995 27.1743 67.9613 27.3233 67.9613 27.4787V34.3793C67.9613 34.5347 67.8995 34.6837 67.7896 34.7936C67.6798 34.9035 67.5307 34.9652 67.3753 34.9652ZM39.5255 50.3027H32.6251C32.4697 50.3027 32.3207 50.241 32.2108 50.1311C32.1009 50.0212 32.0392 49.8722 32.0392 49.7168V42.8162C32.0392 42.6608 32.1009 42.5118 32.2108 42.4019C32.3207 42.292 32.4697 42.2303 32.6251 42.2303H39.5257C39.6811 42.2303 39.8301 42.292 39.94 42.4019C40.0499 42.5118 40.1116 42.6608 40.1116 42.8162V49.7168C40.1116 49.8722 40.0498 50.0212 39.9399 50.1311C39.83 50.241 39.6809 50.3027 39.5255 50.3027ZM53.4503 50.3027H46.5497C46.3943 50.3027 46.2453 50.241 46.1354 50.1311C46.0255 50.0212 45.9638 49.8722 45.9638 49.7168V42.8162C45.9638 42.6608 46.0255 42.5118 46.1354 42.4019C46.2453 42.292 46.3943 42.2303 46.5497 42.2303H53.4503C53.6057 42.2303 53.7548 42.292 53.8646 42.4019C53.9745 42.5118 54.0363 42.6608 54.0363 42.8162V49.7168C54.0363 49.8722 53.9745 50.0212 53.8646 50.1311C53.7548 50.241 53.6057 50.3027 53.4503 50.3027ZM67.3753 50.3027H60.4747C60.3193 50.3027 60.1703 50.241 60.0604 50.1311C59.9505 50.0212 59.8888 49.8722 59.8888 49.7168V42.8162C59.8888 42.6608 59.9505 42.5118 60.0604 42.4019C60.1703 42.292 60.3193 42.2303 60.4747 42.2303H67.3753C67.5307 42.2303 67.6798 42.292 67.7896 42.4019C67.8995 42.5118 67.9613 42.6608 67.9613 42.8162V49.7168C67.9613 49.8722 67.8995 50.0212 67.7896 50.1311C67.6798 50.241 67.5307 50.3027 67.3753 50.3027ZM39.5255 65.6402H32.6251C32.4697 65.6402 32.3207 65.5785 32.2108 65.4686C32.1009 65.3587 32.0392 65.2097 32.0392 65.0543V58.1537C32.0392 57.9983 32.1009 57.8493 32.2108 57.7394C32.3207 57.6295 32.4697 57.5678 32.6251 57.5678H39.5257C39.6811 57.5678 39.8301 57.6295 39.94 57.7394C40.0499 57.8493 40.1116 57.9983 40.1116 58.1537V65.0543C40.1116 65.2097 40.0498 65.3587 39.9399 65.4686C39.83 65.5785 39.6809 65.6402 39.5255 65.6402ZM53.4503 65.6402H46.5497C46.3943 65.6402 46.2453 65.5785 46.1354 65.4686C46.0255 65.3587 45.9638 65.2097 45.9638 65.0543V58.1537C45.9638 57.9983 46.0255 57.8493 46.1354 57.7394C46.2453 57.6295 46.3943 57.5678 46.5497 57.5678H53.4503C53.6057 57.5678 53.7548 57.6295 53.8646 57.7394C53.9745 57.8493 54.0363 57.9983 54.0363 58.1537V65.0543C54.0363 65.2097 53.9745 65.3587 53.8646 65.4686C53.7548 65.5785 53.6057 65.6402 53.4503 65.6402ZM67.3753 65.6402H60.4747C60.3193 65.6402 60.1703 65.5785 60.0604 65.4686C59.9505 65.3587 59.8888 65.2097 59.8888 65.0543V58.1537C59.8888 57.9983 59.9505 57.8493 60.0604 57.7394C60.1703 57.6295 60.3193 57.5678 60.4747 57.5678H67.3753C67.5307 57.5678 67.6798 57.6295 67.7896 57.7394C67.8995 57.8493 67.9613 57.9983 67.9613 58.1537V65.0543C67.9613 65.2097 67.8995 65.3587 67.7896 65.4686C67.6798 65.5785 67.5307 65.6402 67.3753 65.6402ZM73.8331 11.5553H48.3661C48.2107 11.5553 48.0617 11.4935 47.9518 11.3837C47.8419 11.2738 47.7802 11.1247 47.7802 10.9693V2.50488C47.7802 2.34948 47.8419 2.20045 47.9518 2.09056C48.0617 1.98068 48.2107 1.91895 48.3661 1.91895H73.8331C73.9885 1.91895 74.1376 1.98068 74.2475 2.09056C74.3573 2.20045 74.4191 2.34948 74.4191 2.50488V10.9693C74.4191 11.1247 74.3573 11.2738 74.2475 11.3837C74.1376 11.4935 73.9885 11.5553 73.8331 11.5553Z" stroke="#4D8D63" stroke-width="3" stroke-miterlimit="10" stroke-linecap="round" stroke-linejoin="round"/>
<path d="M13.0113 90.7695C16.4537 90.7695 19.2443 87.9789 19.2443 84.5365C19.2443 81.0941 16.4537 78.3035 13.0113 78.3035C9.56893 78.3035 6.77832 81.0941 6.77832 84.5365C6.77832 87.9789 9.56893 90.7695 13.0113 90.7695Z" stroke="#4D8D63" stroke-width="3" stroke-miterlimit="10" stroke-linecap="round" stroke-linejoin="round"/>
<path d="M13.0112 90.7695V98.5352" stroke="#4D8D63" stroke-width="3" stroke-miterlimit="10" stroke-linecap="round" stroke-linejoin="round"/>
<path d="M86.989 90.7695C90.4314 90.7695 93.222 87.9789 93.222 84.5365C93.222 81.0941 90.4314 78.3035 86.989 78.3035C83.5466 78.3035 80.756 81.0941 80.756 84.5365C80.756 87.9789 83.5466 90.7695 86.989 90.7695Z" stroke="#4D8D63" stroke-width="3" stroke-miterlimit="10" stroke-linecap="round" stroke-linejoin="round"/>
<path d="M86.9889 90.7695V98.5352" stroke="#4D8D63" stroke-width="3" stroke-miterlimit="10" stroke-linecap="round" stroke-linejoin="round"/>
</g>
<defs>
<clipPath id="clip0_206_166">
<rect width="100" height="100" fill="white"/>
</clipPath>
</defs>
</svg>
