<svg width="130" height="125" viewBox="0 0 130 125" fill="none" xmlns="http://www.w3.org/2000/svg">
<circle cx="74.5" cy="42.5" r="42.5" fill="#E3FFD1"/>
<g clip-path="url(#clip0_408_568)">
<path d="M6.77832 123.535H93.2221M51.0844 36.5553H71.115V43.4168H51.0844V36.5553ZM75.3908 123.535H24.6096V44.3934C24.6096 44.1344 24.7125 43.886 24.8956 43.7029C25.0787 43.5197 25.3271 43.4168 25.5861 43.4168H74.4143C74.6733 43.4168 74.9216 43.5197 75.1048 43.7029C75.2879 43.886 75.3908 44.1344 75.3908 44.3934V123.535Z" stroke="#4D8D63" stroke-width="3" stroke-miterlimit="10" stroke-linecap="round" stroke-linejoin="round"/>
<path d="M41.9473 31.8084H37.7756C37.6202 31.8084 37.4712 31.7467 37.3613 31.6368C37.2514 31.5269 37.1897 31.3779 37.1897 31.2225V27.0508C37.1897 26.8954 37.128 26.7463 37.0181 26.6365C36.9082 26.5266 36.7592 26.4648 36.6038 26.4648H31.5108C31.3554 26.4648 31.2064 26.5266 31.0965 26.6365C30.9866 26.7463 30.9249 26.8954 30.9249 27.0508V31.2225C30.9249 31.3779 30.8631 31.5269 30.7532 31.6368C30.6434 31.7467 30.4943 31.8084 30.3389 31.8084H26.1672C26.0118 31.8084 25.8628 31.8701 25.7529 31.98C25.643 32.0899 25.5813 32.2389 25.5813 32.3943V37.4873C25.5813 37.6427 25.643 37.7917 25.7529 37.9016C25.8628 38.0115 26.0118 38.0732 26.1672 38.0732H30.3389C30.4943 38.0732 30.6434 38.135 30.7532 38.2449C30.8631 38.3547 30.9249 38.5038 30.9249 38.6592V43.4168H37.1897V38.6592C37.1897 38.5038 37.2514 38.3547 37.3613 38.2449C37.4712 38.135 37.6202 38.0732 37.7756 38.0732H41.9473C42.1027 38.0732 42.2517 38.0115 42.3616 37.9016C42.4715 37.7917 42.5333 37.6427 42.5333 37.4873V32.3943C42.5333 32.2389 42.4715 32.0899 42.3616 31.98C42.2517 31.8701 42.1027 31.8084 41.9473 31.8084ZM38.3866 123.535H61.6137V100.261C61.6137 99.9935 61.5074 99.7369 61.3182 99.5477C61.129 99.3585 60.8723 99.2521 60.6047 99.2521H39.3958C39.1282 99.2521 38.8715 99.3585 38.6823 99.5477C38.4931 99.7369 38.3868 99.9935 38.3868 100.261V123.535H38.3866Z" stroke="#4D8D63" stroke-width="3" stroke-miterlimit="10" stroke-linecap="round" stroke-linejoin="round"/>
<path d="M38.3865 123.535H50.0001V99.2521H39.3956C39.128 99.2521 38.8714 99.3584 38.6822 99.5477C38.493 99.7369 38.3866 99.9935 38.3866 100.261V123.535H38.3865ZM39.5255 59.9652H32.6251C32.4697 59.9652 32.3207 59.9035 32.2108 59.7936C32.1009 59.6837 32.0392 59.5347 32.0392 59.3793V52.4787C32.0392 52.3233 32.1009 52.1743 32.2108 52.0644C32.3207 51.9545 32.4697 51.8928 32.6251 51.8928H39.5257C39.6811 51.8928 39.8301 51.9545 39.94 52.0644C40.0499 52.1743 40.1116 52.3233 40.1116 52.4787V59.3793C40.1116 59.5347 40.0498 59.6837 39.9399 59.7936C39.83 59.9035 39.6809 59.9652 39.5255 59.9652ZM53.4503 59.9652H46.5497C46.3943 59.9652 46.2453 59.9035 46.1354 59.7936C46.0255 59.6837 45.9638 59.5347 45.9638 59.3793V52.4787C45.9638 52.3233 46.0255 52.1743 46.1354 52.0644C46.2453 51.9545 46.3943 51.8928 46.5497 51.8928H53.4503C53.6057 51.8928 53.7548 51.9545 53.8646 52.0644C53.9745 52.1743 54.0363 52.3233 54.0363 52.4787V59.3793C54.0363 59.5347 53.9745 59.6837 53.8646 59.7936C53.7548 59.9035 53.6057 59.9652 53.4503 59.9652ZM67.3753 59.9652H60.4747C60.3193 59.9652 60.1703 59.9035 60.0604 59.7936C59.9505 59.6837 59.8888 59.5347 59.8888 59.3793V52.4787C59.8888 52.3233 59.9505 52.1743 60.0604 52.0644C60.1703 51.9545 60.3193 51.8928 60.4747 51.8928H67.3753C67.5307 51.8928 67.6798 51.9545 67.7896 52.0644C67.8995 52.1743 67.9613 52.3233 67.9613 52.4787V59.3793C67.9613 59.5347 67.8995 59.6837 67.7896 59.7936C67.6798 59.9035 67.5307 59.9652 67.3753 59.9652ZM39.5255 75.3027H32.6251C32.4697 75.3027 32.3207 75.241 32.2108 75.1311C32.1009 75.0212 32.0392 74.8722 32.0392 74.7168V67.8162C32.0392 67.6608 32.1009 67.5118 32.2108 67.4019C32.3207 67.292 32.4697 67.2303 32.6251 67.2303H39.5257C39.6811 67.2303 39.8301 67.292 39.94 67.4019C40.0499 67.5118 40.1116 67.6608 40.1116 67.8162V74.7168C40.1116 74.8722 40.0498 75.0212 39.9399 75.1311C39.83 75.241 39.6809 75.3027 39.5255 75.3027ZM53.4503 75.3027H46.5497C46.3943 75.3027 46.2453 75.241 46.1354 75.1311C46.0255 75.0212 45.9638 74.8722 45.9638 74.7168V67.8162C45.9638 67.6608 46.0255 67.5118 46.1354 67.4019C46.2453 67.292 46.3943 67.2303 46.5497 67.2303H53.4503C53.6057 67.2303 53.7548 67.292 53.8646 67.4019C53.9745 67.5118 54.0363 67.6608 54.0363 67.8162V74.7168C54.0363 74.8722 53.9745 75.0212 53.8646 75.1311C53.7548 75.241 53.6057 75.3027 53.4503 75.3027ZM67.3753 75.3027H60.4747C60.3193 75.3027 60.1703 75.241 60.0604 75.1311C59.9505 75.0212 59.8888 74.8722 59.8888 74.7168V67.8162C59.8888 67.6608 59.9505 67.5118 60.0604 67.4019C60.1703 67.292 60.3193 67.2303 60.4747 67.2303H67.3753C67.5307 67.2303 67.6798 67.292 67.7896 67.4019C67.8995 67.5118 67.9613 67.6608 67.9613 67.8162V74.7168C67.9613 74.8722 67.8995 75.0212 67.7896 75.1311C67.6798 75.241 67.5307 75.3027 67.3753 75.3027ZM39.5255 90.6402H32.6251C32.4697 90.6402 32.3207 90.5785 32.2108 90.4686C32.1009 90.3587 32.0392 90.2097 32.0392 90.0543V83.1537C32.0392 82.9983 32.1009 82.8493 32.2108 82.7394C32.3207 82.6295 32.4697 82.5678 32.6251 82.5678H39.5257C39.6811 82.5678 39.8301 82.6295 39.94 82.7394C40.0499 82.8493 40.1116 82.9983 40.1116 83.1537V90.0543C40.1116 90.2097 40.0498 90.3587 39.9399 90.4686C39.83 90.5785 39.6809 90.6402 39.5255 90.6402ZM53.4503 90.6402H46.5497C46.3943 90.6402 46.2453 90.5785 46.1354 90.4686C46.0255 90.3587 45.9638 90.2097 45.9638 90.0543V83.1537C45.9638 82.9983 46.0255 82.8493 46.1354 82.7394C46.2453 82.6295 46.3943 82.5678 46.5497 82.5678H53.4503C53.6057 82.5678 53.7548 82.6295 53.8646 82.7394C53.9745 82.8493 54.0363 82.9983 54.0363 83.1537V90.0543C54.0363 90.2097 53.9745 90.3587 53.8646 90.4686C53.7548 90.5785 53.6057 90.6402 53.4503 90.6402ZM67.3753 90.6402H60.4747C60.3193 90.6402 60.1703 90.5785 60.0604 90.4686C59.9505 90.3587 59.8888 90.2097 59.8888 90.0543V83.1537C59.8888 82.9983 59.9505 82.8493 60.0604 82.7394C60.1703 82.6295 60.3193 82.5678 60.4747 82.5678H67.3753C67.5307 82.5678 67.6798 82.6295 67.7896 82.7394C67.8995 82.8493 67.9613 82.9983 67.9613 83.1537V90.0543C67.9613 90.2097 67.8995 90.3587 67.7896 90.4686C67.6798 90.5785 67.5307 90.6402 67.3753 90.6402ZM73.8331 36.5553H48.3661C48.2107 36.5553 48.0617 36.4935 47.9518 36.3837C47.8419 36.2738 47.7802 36.1247 47.7802 35.9693V27.5049C47.7802 27.3495 47.8419 27.2004 47.9518 27.0906C48.0617 26.9807 48.2107 26.9189 48.3661 26.9189H73.8331C73.9885 26.9189 74.1376 26.9807 74.2475 27.0906C74.3573 27.2004 74.4191 27.3495 74.4191 27.5049V35.9693C74.4191 36.1247 74.3573 36.2738 74.2475 36.3837C74.1376 36.4935 73.9885 36.5553 73.8331 36.5553Z" stroke="#4D8D63" stroke-width="3" stroke-miterlimit="10" stroke-linecap="round" stroke-linejoin="round"/>
<path d="M13.0113 115.769C16.4537 115.769 19.2443 112.979 19.2443 109.536C19.2443 106.094 16.4537 103.303 13.0113 103.303C9.56893 103.303 6.77832 106.094 6.77832 109.536C6.77832 112.979 9.56893 115.769 13.0113 115.769Z" stroke="#4D8D63" stroke-width="3" stroke-miterlimit="10" stroke-linecap="round" stroke-linejoin="round"/>
<path d="M13.0112 115.77V123.535" stroke="#4D8D63" stroke-width="3" stroke-miterlimit="10" stroke-linecap="round" stroke-linejoin="round"/>
<path d="M86.989 115.769C90.4314 115.769 93.222 112.979 93.222 109.536C93.222 106.094 90.4314 103.303 86.989 103.303C83.5466 103.303 80.756 106.094 80.756 109.536C80.756 112.979 83.5466 115.769 86.989 115.769Z" stroke="#4D8D63" stroke-width="3" stroke-miterlimit="10" stroke-linecap="round" stroke-linejoin="round"/>
<path d="M86.9889 115.77V123.535" stroke="#4D8D63" stroke-width="3" stroke-miterlimit="10" stroke-linecap="round" stroke-linejoin="round"/>
</g>
<defs>
<clipPath id="clip0_408_568">
<rect width="100" height="100" fill="white" transform="translate(0 25)"/>
</clipPath>
</defs>
</svg>
