<svg width="60" height="60" viewBox="0 0 60 60" fill="none" xmlns="http://www.w3.org/2000/svg">
<rect width="60" height="60" rx="30" transform="matrix(-1 0 0 1 60 0)" fill="#E0E0E0"/>
<path d="M15.7828 30.8839C15.2947 30.3957 15.2947 29.6043 15.7828 29.1161L23.7378 21.1612C24.2259 20.673 25.0174 20.673 25.5055 21.1612C25.9937 21.6493 25.9937 22.4408 25.5055 22.9289L18.4345 30L25.5055 37.0711C25.9937 37.5592 25.9937 38.3507 25.5055 38.8388C25.0174 39.327 24.2259 39.327 23.7378 38.8388L15.7828 30.8839ZM43.3334 31.25L16.6667 31.25L16.6667 28.75L43.3334 28.75L43.3334 31.25Z" fill="black"/>
</svg>
