<svg width="40" height="40" viewBox="0 0 40 40" fill="none" xmlns="http://www.w3.org/2000/svg">
<path d="M18.8336 37.1911C15.1633 32.6653 7 21.6963 7 15.535C7 8.05974 13.0441 2 20.5 2C27.9531 2 34 8.05974 34 15.535C34 21.6963 25.7734 32.6653 22.1664 37.1911C21.3016 38.2696 19.6984 38.2696 18.8336 37.1911V37.1911ZM20.5 20.0467C22.982 20.0467 25 18.0235 25 15.535C25 13.0466 22.982 11.0234 20.5 11.0234C18.018 11.0234 16 13.0466 16 15.535C16 18.0235 18.018 20.0467 20.5 20.0467Z" fill="#4D8D63"/>
</svg>
